<?xml version="1.0" encoding="utf-8"?>
<!-- Generator: Adobe Illustrator 23.0.1, SVG Export Plug-In . SVG Version: 6.00 Build 0)  -->
<svg version="1.1" id="Calque_1" xmlns="http://www.w3.org/2000/svg" xmlns:xlink="http://www.w3.org/1999/xlink" x="0px" y="0px"
	 viewBox="0 0 1225.4 517.3" style="enable-background:new 0 0 1225.4 517.3;" xml:space="preserve">
<style type="text/css">
	.st0{fill:#000046;}
	.st1{fill:#3AD29F;}
</style>
<g>
	<path class="st0" d="M127.5,229.1c6.7-10.9,16.7-16.2,29.8-16.2c13.2,0,23.9,4.5,32.6,13.7c8.5,9.2,12.7,20.9,12.7,35.3
		c0,14.4-4.2,26.4-12.7,35.6c-8.5,9.2-19.4,13.9-32.3,13.9c-12.9,0-23.1-5.7-30.1-17.4v61.7h-24.4V214.2h24.4
		C127.5,214.2,127.5,229.1,127.5,229.1z M170.2,282.6c5-5,7.5-11.9,7.5-20.6s-2.5-15.7-7.5-20.6s-10.9-7.5-17.7-7.5
		c-6.7,0-12.7,2.5-17.7,7.5s-7.5,11.9-7.5,20.6s2.5,15.7,7.5,20.6c5,5,10.9,7.5,17.7,7.5C159.3,290.3,165.3,287.8,170.2,282.6z"/>
	<path class="st0" d="M239.1,214.2v16.9c6.5-12.2,15.7-18.4,28.1-18.4v24.9h-6c-7.2,0-12.7,1.7-16.4,5.5c-3.7,3.7-5.5,9.9-5.5,18.7
		v48H215v-95.5H239.1z"/>
	<path class="st0" d="M318,311.4c-13.9,0-25.4-4.5-34.1-13.7c-8.7-9-13.2-20.9-13.2-35.8c0-14.9,4.5-26.9,13.2-35.8
		c8.7-9,20.1-13.4,34.3-13.4c13.9,0,25.6,4.5,34.6,12.9c9,8.7,13.4,20.4,13.4,34.8c0,3.2-0.2,6.5-0.7,9.4h-69.9
		c0.5,6.2,3,11.2,7,14.9c4,3.7,9.2,5.7,15.4,5.7c8.5,0,14.7-3.5,18.7-10.4H363c-2.7,9.2-8.2,16.7-16.2,22.4
		C338.8,308.4,329.4,311.4,318,311.4z M333.9,239.1c-4.2-3.7-9.4-5.7-15.7-5.7c-6.2,0-11.2,2-15.4,5.7c-4,3.7-6.5,9-7.5,15.2h45.3
		C340.6,248,338.3,243,333.9,239.1z"/>
	<path class="st0" d="M373.2,242.3c0-8.2,3.5-15.2,10.4-20.9c7-5.7,16.4-8.5,28.1-8.5s20.9,2.7,28.1,8.5c7,5.5,10.7,13.2,11.2,22.6
		h-24.9c-0.7-8-5.7-12.2-14.9-12.2c-4.7,0-8.2,1-10.7,2.7c-2.5,1.7-3.7,4.5-3.7,7.7s2,5.7,5.7,7.7c3.7,1.7,8.5,3.2,13.9,4.2
		c5.5,1,10.7,2.2,16.2,4s9.9,4.2,13.7,8.2c3.7,4,5.7,9.2,5.7,15.9c0,8.7-3.7,15.7-10.9,21.1c-7.2,5.5-16.7,8.2-28.1,8.2
		s-20.6-2.7-27.9-8c-7.2-5.2-11.2-12.9-11.9-23.1H398c1,8,6,12.2,15.4,12.2c4.5,0,8.2-1,10.9-3c2.7-2,4.2-4.7,4.2-8
		c0-3.2-2-6-5.7-7.7c-3.7-2-8.5-3.5-13.9-4.5c-5.5-1-10.7-2.2-16.2-3.7c-5.5-1.5-9.9-4.2-13.7-8
		C375.1,253.5,373.2,248.5,373.2,242.3z"/>
	<path class="st0" d="M502.7,289.5h11.7v20.4H499c-9.7,0-17.4-2.2-22.6-6.7s-8-11.9-8-22.4v-46.8h-10.2v-19.9h10.2v-23.6h24.4v23.6
		h21.4v19.9h-21.4v46.8c0,3.2,0.7,5.2,2.2,6.7C496.5,289,499,289.5,502.7,289.5z"/>
	<path class="st0" d="M532.6,297.5c-8.7-9.2-12.9-21.1-12.9-35.6s4.2-26.1,12.7-35.3s19.4-13.7,32.6-13.7c13.2,0,23.1,5.5,30.1,16.2
		v-14.9h24.1v95.7H595v-16.2c-7.2,11.7-17.4,17.4-30.3,17.4C552,311.4,541.3,306.7,532.6,297.5z M587.5,282.8c5-5,7.7-11.9,7.7-20.6
		c0-8.7-2.5-15.7-7.7-20.6c-5-5-10.9-7.5-17.9-7.5c-6.7,0-12.7,2.5-17.7,7.5c-5,5-7.5,11.9-7.5,20.6c0,8.7,2.5,15.7,7.7,20.6
		c5,5,10.9,7.7,17.7,7.7S582.3,287.8,587.5,282.8z"/>
	<path class="st1" d="M633,242.3c0-8.2,3.5-15.2,10.4-20.9c7-5.7,16.4-8.5,28.1-8.5c11.7,0,20.9,2.7,28.1,8.5
		c7,5.5,10.7,13.2,11.2,22.6H686c-0.7-8-5.7-12.2-14.9-12.2c-4.7,0-8.2,1-10.7,2.7c-2.5,1.7-3.7,4.5-3.7,7.7s2,5.7,5.7,7.7
		c3.7,1.7,8.5,3.2,13.9,4.2s10.7,2.2,16.2,4s9.9,4.2,13.7,8.2c3.7,4,5.7,9.2,5.7,15.9c0,8.7-3.7,15.7-10.9,21.1s-16.7,8.2-28.1,8.2
		c-11.4,0-20.6-2.7-27.9-8c-7.2-5.2-11.2-12.9-11.9-23.1h24.9c1,8,6,12.2,15.4,12.2c4.5,0,8.2-1,10.9-3c2.7-2,4.2-4.7,4.2-8
		c0-3.2-2-6-5.7-7.7c-3.7-2-8.5-3.5-13.9-4.5c-5.5-1-10.7-2.2-16.2-3.7c-5.5-1.5-9.9-4.2-13.7-8C634.8,253.5,633,248.5,633,242.3z"
		/>
	<path class="st1" d="M731.7,298c-8.7-9-13.2-20.9-13.2-35.8c0-14.9,4.5-26.9,13.2-35.8s20.1-13.4,34.1-13.4
		c11.7,0,21.4,2.7,29.1,8.5c8,5.7,13.2,13.7,15.7,24.1h-26.1c-3.2-8-9.4-11.9-18.7-11.9c-7,0-12.4,2.5-16.4,7.7
		c-4,5.2-6,12.2-6,20.9c0,9,2,15.9,6,20.9c4,5.2,9.4,7.7,16.4,7.7c9.2,0,15.4-4,18.7-12.2h26.4c-2.7,9.9-8.2,17.9-15.9,23.9
		c-8,6-17.7,8.7-28.8,8.7C751.9,311.4,740.4,306.9,731.7,298z"/>
	<path class="st1" d="M828.2,297.5c-8.7-9.2-12.9-21.1-12.9-35.6s4.2-26.1,12.7-35.3s19.4-13.7,32.6-13.7s23.1,5.5,30.1,16.2v-14.9
		h24.1v95.7h-24.1v-16.2c-7.2,11.7-17.4,17.4-30.3,17.4C847.6,311.4,836.9,306.7,828.2,297.5z M883.2,282.8c5-5,7.7-11.9,7.7-20.6
		c0-8.7-2.5-15.7-7.7-20.6c-5-5-10.9-7.5-17.9-7.5c-6.7,0-12.7,2.5-17.7,7.5c-5,5-7.5,11.9-7.5,20.6c0,8.7,2.5,15.7,7.7,20.6
		c5,5,10.9,7.7,17.7,7.7S878.2,287.8,883.2,282.8z"/>
	<path class="st1" d="M958.3,214.2v14.4c6.2-10.4,15.9-15.7,29.8-15.7c10.9,0,19.9,3.5,26.9,10.7c7,7.2,10.4,17.2,10.4,30.1v56.4
		h-24.1v-53c0-7.5-2-13.2-5.7-17.2c-3.7-4-9-6-15.7-6c-6.5,0-11.7,2-15.7,6c-4,4-5.7,9.7-5.7,17.2v53h-24.4v-96H958.3z"/>
</g>
<g>
	<circle class="st1" cx="842.1" cy="379.6" r="7.5"/>
	<circle class="st1" cx="872.7" cy="381" r="7.2"/>
	<circle class="st1" cx="886.9" cy="403.9" r="6"/>
	<circle class="st1" cx="927.2" cy="397.5" r="10.7"/>
	<circle class="st1" cx="966.7" cy="405.7" r="8.2"/>
	<circle class="st1" cx="960.8" cy="379.8" r="8.2"/>
	<circle class="st1" cx="1040.3" cy="397.5" r="5.5"/>
	<circle class="st1" cx="934.9" cy="374.1" r="5.5"/>
	<circle class="st1" cx="1049.3" cy="279.8" r="7.7"/>
	<circle class="st1" cx="1036.9" cy="348.7" r="8"/>
	<circle class="st1" cx="1025.2" cy="378.6" r="7.2"/>
	<circle class="st1" cx="996.8" cy="393.5" r="7.2"/>
	<circle class="st1" cx="1055.3" cy="359.9" r="5.7"/>
	<circle class="st1" cx="1093.3" cy="334.5" r="5"/>
	<circle class="st1" cx="1118.4" cy="242" r="4.2"/>
	<circle class="st1" cx="1054" cy="331.1" r="7.2"/>
	<circle class="st1" cx="1065.7" cy="301.2" r="8.2"/>
	<circle class="st1" cx="1041.8" cy="225.1" r="7.5"/>
	<circle class="st1" cx="1073.9" cy="242" r="12.7"/>
	<circle class="st1" cx="969.2" cy="190.8" r="9.2"/>
	<circle class="st1" cx="1036.4" cy="190.8" r="9.7"/>
	<circle class="st1" cx="1040.3" cy="157.2" r="9.7"/>
	<circle class="st1" cx="999.6" cy="170.7" r="9.9"/>
	<circle class="st1" cx="1093.3" cy="287.3" r="9"/>
	<circle class="st1" cx="1093.3" cy="222.6" r="7.2"/>
	<circle class="st1" cx="1098.8" cy="258.7" r="6.2"/>
	<circle class="st1" cx="1065.7" cy="208.5" r="7.7"/>
	<circle class="st1" cx="1065.7" cy="178.6" r="5.5"/>
	<circle class="st1" cx="1002.5" cy="196" r="5.5"/>
	<circle class="st1" cx="1031.6" cy="133.4" r="7.7"/>
	<circle class="st1" cx="1105" cy="198.8" r="4.7"/>
	<circle class="st1" cx="876.7" cy="129.6" r="3.7"/>
	<circle class="st1" cx="821.8" cy="157.2" r="3.7"/>
	<circle class="st1" cx="861.8" cy="157.7" r="6.7"/>
	<circle class="st1" cx="842.6" cy="190.8" r="10.4"/>
	<circle class="st1" cx="879.9" cy="189.3" r="7"/>
	<circle class="st1" cx="897.9" cy="166.9" r="9.7"/>
	<circle class="st1" cx="929.4" cy="180.4" r="13.4"/>
	<circle class="st1" cx="907.5" cy="136.1" r="8.5"/>
	<circle class="st1" cx="966.5" cy="162.2" r="10.4"/>
	<circle class="st1" cx="939.6" cy="153" r="10.4"/>
	<circle class="st1" cx="929.4" cy="94.1" r="4"/>
	<circle class="st1" cx="942.9" cy="127.6" r="5.5"/>
	<circle class="st1" cx="986.1" cy="108" r="7.2"/>
	<circle class="st1" cx="1016" cy="100.8" r="6.2"/>
	<circle class="st1" cx="1012" cy="145.3" r="7.5"/>
	<circle class="st1" cx="1077.9" cy="139.3" r="7.5"/>
	<circle class="st1" cx="972.5" cy="133.1" r="6.5"/>
	<circle class="st1" cx="905.8" cy="379.1" r="5.5"/>
</g>
<g>
	<path class="st0" d="M786.6,337.9c0-2.8,1.2-5.2,3.6-7.1c2.4-1.9,5.5-2.9,9.5-2.9c3.9,0,7.1,0.9,9.5,2.8c2.4,1.9,3.6,4.4,3.8,7.7
		h-8.4c-0.2-2.7-1.9-4.1-5-4.1c-1.6,0-2.8,0.3-3.6,0.9c-0.9,0.6-1.3,1.5-1.3,2.6c0,1.1,0.6,1.9,1.9,2.6c1.3,0.6,2.8,1.1,4.7,1.5
		c1.8,0.4,3.6,0.8,5.5,1.3c1.8,0.5,3.4,1.5,4.6,2.8c1.3,1.3,1.9,3.1,1.9,5.3c0,2.9-1.2,5.3-3.7,7.1c-2.5,1.8-5.6,2.7-9.5,2.7
		c-3.8,0-7-0.9-9.4-2.7c-2.5-1.8-3.8-4.4-4-7.8h8.4c0.3,2.7,2,4.1,5.2,4.1c1.5,0,2.7-0.3,3.7-1c0.9-0.7,1.4-1.6,1.4-2.7
		c0-1.1-0.6-2-1.9-2.6c-1.3-0.6-2.8-1.1-4.7-1.5c-1.8-0.4-3.6-0.8-5.5-1.3c-1.8-0.5-3.4-1.4-4.6-2.7
		C787.3,341.7,786.6,340,786.6,337.9z"/>
	<path class="st0" d="M833.8,361.3c-4.7,0-8.5-1.5-11.5-4.6c-3-3.1-4.4-7.1-4.4-12.1c0-5,1.5-9,4.5-12.1c3-3,6.8-4.5,11.6-4.5
		c4.7,0,8.6,1.5,11.6,4.4c3,2.9,4.6,6.9,4.6,11.8c0,1.1-0.1,2.2-0.2,3.2h-23.6c0.2,2.1,1,3.8,2.3,5.1c1.4,1.3,3.1,1.9,5.2,1.9
		c2.8,0,4.9-1.2,6.3-3.5h8.9c-0.9,3.1-2.7,5.6-5.4,7.5C840.9,360.3,837.7,361.3,833.8,361.3z M839.2,336.9c-1.5-1.3-3.2-1.9-5.3-1.9
		c-2.1,0-3.8,0.6-5.2,1.9c-1.4,1.3-2.2,3-2.5,5.1h15.3C841.5,339.9,840.7,338.2,839.2,336.9z"/>
	<path class="st0" d="M858.8,356.7c-3-3-4.4-7.1-4.4-12.1c0-5,1.5-9,4.4-12.1c3-3,6.8-4.6,11.5-4.6c3.9,0,7.2,1,9.9,2.9
		c2.6,1.9,4.4,4.6,5.3,8.1h-8.9c-1.1-2.7-3.2-4-6.3-4c-2.4,0-4.2,0.9-5.6,2.6c-1.3,1.7-2,4.1-2,7.1c0,3,0.7,5.4,2,7.1
		c1.3,1.7,3.2,2.6,5.6,2.6c3.1,0,5.2-1.4,6.3-4.1h8.9c-0.9,3.4-2.7,6.1-5.4,8.1c-2.7,2-5.9,3-9.8,3
		C865.6,361.3,861.7,359.8,858.8,356.7z"/>
	<path class="st0" d="M913.9,328.5h8.2v32.3h-8.2v-4.9c-2.1,3.5-5.4,5.3-10.1,5.3c-3.7,0-6.7-1.2-9-3.6c-2.3-2.4-3.5-5.8-3.5-10.1
		v-19h8.2v17.8c0,2.5,0.6,4.5,1.9,5.8c1.3,1.4,3,2,5.3,2c2.2,0,4-0.7,5.3-2c1.3-1.4,2-3.3,2-5.8V328.5z"/>
	<path class="st0" d="M939.1,328.5v5.7c2.2-4.1,5.3-6.2,9.5-6.2v8.4h-2c-2.5,0-4.3,0.6-5.5,1.8c-1.2,1.2-1.9,3.3-1.9,6.3v16.2h-8.2
		v-32.3H939.1z"/>
	<path class="st0" d="M963.5,320.2c0,1.4-0.5,2.6-1.5,3.6c-1,1-2.2,1.5-3.5,1.5c-1.4,0-2.6-0.5-3.5-1.5c-1-1-1.5-2.2-1.5-3.6
		s0.5-2.6,1.5-3.6c1-1,2.1-1.5,3.5-1.5c1.4,0,2.6,0.5,3.5,1.5C963,317.7,963.5,318.8,963.5,320.2z M954.4,360.8v-32.3h8.2v32.3
		H954.4z"/>
	<path class="st0" d="M984,353.9h3.9v6.9h-5.2c-3.3,0-5.9-0.8-7.6-2.3c-1.8-1.5-2.7-4-2.7-7.5v-15.8h-3.4v-6.7h3.4v-8h8.2v8h7.2v6.7
		h-7.2V351c0,1.1,0.3,1.8,0.8,2.2C981.8,353.7,982.7,353.9,984,353.9z"/>
	<path class="st0" d="M1003,360.2l-12.7-31.7h9.2l8.2,23l8.7-23h8.6l-20.2,47.6h-8.6L1003,360.2z"/>
</g>
</svg>
