<?xml version="1.0" encoding="utf-8"?>
<!-- Generator: Adobe Illustrator 23.0.1, SVG Export Plug-In . SVG Version: 6.00 Build 0)  -->
<svg version="1.1" id="Calque_1" xmlns="http://www.w3.org/2000/svg" xmlns:xlink="http://www.w3.org/1999/xlink" x="0px" y="0px"
	 viewBox="0 0 400 400" style="enable-background:new 0 0 400 400;" xml:space="preserve">
<style type="text/css">
	.st0{fill:#ffa801;}
</style>
<g>
	<path class="st0" d="M388.3,265.1l-40.2-13.9c5.6-16.3,8.5-33.4,8.5-50.9l0-1l42.5-0.4l0,1.4C399.1,222.5,395.5,244.3,388.3,265.1z
		"/>
	<path class="st0" d="M354.3,173.3c-0.9-4.9-2-9.8-3.3-14.7l41-11.3c1.7,6.1,3.1,12.4,4.2,18.7L354.3,173.3z"/>
	<path class="st0" d="M200.8,398.6c-109.4,0-198.3-89-198.3-198.3S91.5,2,200.8,2v42.5C114.9,44.5,45,114.4,45,200.3
		s69.9,155.8,155.8,155.8c52.3,0,100.9-26,129.9-69.7c2-3,3.9-6.1,5.7-9.3l36.9,21c-2.3,4-4.7,8-7.3,11.8
		C329.2,365.5,267.4,398.6,200.8,398.6z"/>
</g>
</svg>
