<?xml version="1.0" encoding="utf-8"?>
<!-- Generator: Adobe Illustrator 23.0.1, SVG Export Plug-In . SVG Version: 6.00 Build 0)  -->
<svg version="1.1" id="Calque_1" xmlns="http://www.w3.org/2000/svg" xmlns:xlink="http://www.w3.org/1999/xlink" x="0px" y="0px"
	 viewBox="0 0 400 400" style="enable-background:new 0 0 400 400;" xml:space="preserve">
<style type="text/css">
	.st0{fill:#353a40;}
</style>
<path class="st0" d="M291.8,95.7c1.8,0,3.3,0,4.8,0c17.6,0,35.2,0,52.9,0c15.7,0,26.9,11.2,27,26.9c0.1,22.2,0,44.4,0,66.7
	c0,12-8.5,17.7-19.7,13.2c-16.7-6.8-35.1,0.3-42.5,16.3c-7.3,15.8-0.9,34.5,14.6,42.4c8.9,4.6,18.2,4.9,27.5,1.1
	c11.7-4.7,20,0.9,20,13.4c0,21.7,0,43.4,0,65c0,17.3-10.8,28.1-28.2,28.1c-76.6,0-153.1,0-229.7,0c-17.6,0-28.4-10.8-28.4-28.4
	c0-15,0-30.1,0-45.1c0-1.5,0-2.9,0-4.7c-20.6,1.2-38-5.2-51.3-20.8c-10.1-11.9-14.6-25.8-13.7-41.4c1.9-31.1,28.8-57.6,65-54.8
	c0-1.5,0-2.9,0-4.3c0-15.4,0-30.9,0-46.3c0-16.5,11-27.4,27.6-27.5c17.5,0,35,0,52.4,0c1.5,0,2.9,0,4.4,0
	c-2.8-41.4,30.8-66.8,61.7-65.1C267.3,32.4,294.6,59,291.8,95.7z M116.1,342.7c78.3,0,156.2,0,233.9,0c0-17.4,0-34.6,0-51.7
	c-37.4,2.7-63.4-25.6-64.9-56c-1.5-30.9,24.1-64,64.8-61.3c0-17.2,0-34.5,0-51.9c-1.8,0-3.3,0-4.8,0c-23.2,0-46.4,0-69.5,0
	c-11.2,0-16.9-8.8-13-19.1c1.4-3.7,2.6-7.8,2.9-11.7c0.8-13.7-6.7-25.8-18.9-31.4c-12-5.5-26.4-3-35.8,6.1
	c-9.8,9.5-12.8,23.4-7.6,36.3c4.6,11.4-1,19.9-13.3,19.9c-23,0-46.1,0-69.1,0c-1.5,0-2.9,0-4.7,0c0,1.9,0,3.3,0,4.8
	c0,21.3,0,42.6,0,63.8c0,9.8-8.4,16.1-17.3,13.1c-1.3-0.4-2.5-1-3.8-1.5c-14.6-5.5-30.9,0-39.1,13.1c-8.3,13.2-6.1,30.7,5.6,41.1
	c10.5,9.3,22.5,11.1,35.5,5.8c10.1-4.1,18.9,1.8,19,12.6c0,2.2,0,4.3,0,6.5C116.1,301.5,116.1,321.9,116.1,342.7z"/>
</svg>
