<?xml version="1.0" encoding="utf-8"?>
<!-- Generator: Adobe Illustrator 23.0.1, SVG Export Plug-In . SVG Version: 6.00 Build 0)  -->
<svg version="1.1" id="Calque_1" xmlns="http://www.w3.org/2000/svg" xmlns:xlink="http://www.w3.org/1999/xlink" x="0px" y="0px"
	 viewBox="0 0 400 400" style="enable-background:new 0 0 400 400;" xml:space="preserve">
<style type="text/css">
	.st0{fill:#353a40;}
</style>
<path class="st0" d="M151.8,206.3c-13.6,0-26.5,0-39.4,0c-2.7,0-5.5,0-8.2,0c-13.5-0.1-20.4-10.1-15.8-22.7c8.6-23.4,17.3-46.9,25.9-70.3
	c9.8-26.5,19.5-53,29.3-79.4c3.8-10.4,7.9-13.3,18.9-13.3c45.5,0,90.9,0,136.4,0c10,0,16.9,6,16.9,15c0,3.1-1,6.4-2.4,9.3
	c-16,33.7-32.2,67.4-48.3,101.1c-0.7,1.4-1.2,2.8-2.1,4.7c11,0,21.5,0,32,0c2.5,0,5-0.2,7.4,0.2c6.1,1,10.6,4.3,12.6,10.3
	c1.9,5.8,1,11.2-3.2,15.6c-5,5.3-10.3,10.3-15.5,15.4c-60.6,59.7-121.1,119.5-181.7,179.3c-5,4.9-10.6,7.1-17.4,4.6
	c-6.2-2.2-9.9-6.9-10.2-13.5c-0.1-3.2,0.8-6.7,2.1-9.7c20.2-47.5,40.6-95,60.9-142.4C150.6,209.4,151.1,208.2,151.8,206.3z
	 M125,175.1c2.1,0,3.5,0,5,0c14.5,0,28.9,0,43.4,0c14.5,0,21.5,10.6,15.8,23.9c-12.7,29.8-25.5,59.5-38.2,89.3
	c-0.6,1.5-1.2,3-1.8,4.5c0.2,0.1,0.4,0.2,0.5,0.3c37.3-36.8,74.6-73.6,112.6-111.2c-8.9,0-16.7,0.1-24.5,0
	c-7.5-0.1-13.6-5.2-15.1-12.3c-0.9-4.4,0.4-8.4,2.3-12.4c16.1-33.4,32.1-66.8,48.1-100.3c0.7-1.5,1.3-3,2.2-5c-1.9,0-3.2,0-4.5,0
	c-32.2,0-64.3,0.1-96.5-0.1c-3.2,0-4.5,1-5.5,3.9c-10.4,28.5-20.9,56.9-31.3,85.3C133.4,152.2,129.3,163.3,125,175.1z"/>
</svg>
