<?xml version="1.0" encoding="utf-8"?>
<!-- Generator: Adobe Illustrator 23.0.1, SVG Export Plug-In . SVG Version: 6.00 Build 0)  -->
<svg version="1.1" id="Calque_1" xmlns="http://www.w3.org/2000/svg" xmlns:xlink="http://www.w3.org/1999/xlink" x="0px" y="0px"
	 viewBox="0 0 400 400" style="enable-background:new 0 0 400 400;" xml:space="preserve">
<style type="text/css">
	.st0{fill:#353a40;}
</style>
<path class="st0" d="M54.1,281.9c0.3-17.7,4.7-34.3,13.1-49.8c29.5-53.9,59.1-107.7,88.7-161.5c3.7-6.7,10-9.9,16.5-8.5
	c6.3,1.3,11.2,6.4,11.4,13c0.1,3.3-1.1,7-2.7,9.9c-18.2,33.1-36.5,66.1-54.9,99.2c-11.2,20.2-22.5,40.2-33.5,60.5
	c-10.6,19.6-13.1,40.1-5.3,61.3c12,32.8,44.2,43.6,68.5,40.8c25.7-3,44.2-16.5,56.3-39.2c34.1-64.1,68.3-128.2,102.5-192.3
	c5.2-9.8,7.5-19.8,4.7-30.8c-4.3-16.9-18-29-35.4-31.1c-19.4-2.4-34.4,5.3-43.6,22.5c-33.7,63.3-67.3,126.6-101.4,189.7
	c-4.9,9.1-0.2,20.5,12.2,23.1c5.7,1.2,10.5-1.7,13.7-7.6c6.5-12.2,13-24.4,19.4-36.6c15-28.3,30-56.6,45.1-84.9
	c3.9-7.4,10.6-10.4,17.7-8.3c8.8,2.6,12.9,12.1,8.8,20.6c-2.6,5.4-5.5,10.6-8.3,15.8c-18.8,35.4-37.6,70.9-56.4,106.3
	c-6.7,12.6-16.7,20.6-30.8,23.2c-24,4.4-50-15.5-52.2-39.7c-0.8-8.8,0.8-16.9,5-24.7c34.1-63.9,68.1-127.8,102.2-191.6
	c14.4-27,42.1-40.8,72.9-36.5c29.9,4.2,53.3,25.4,59.9,54.6c3.8,16.8,0.9,32.8-7.1,47.9c-18.5,34.8-36.9,69.7-55.4,104.5
	c-16,30.2-32.1,60.3-48,90.5c-16.3,30.8-41.7,48.8-76.1,53.5c-43.8,6-99.9-19.3-106.9-83.7C54.5,288.7,54.4,285.3,54.1,281.9z"/>
</svg>
