<?xml version="1.0" encoding="utf-8"?>
<!-- Generator: Adobe Illustrator 23.0.1, SVG Export Plug-In . SVG Version: 6.00 Build 0)  -->
<svg version="1.1" id="Calque_1" xmlns="http://www.w3.org/2000/svg" xmlns:xlink="http://www.w3.org/1999/xlink" x="0px" y="0px"
	 viewBox="0 0 734 131" style="enable-background:new 0 0 734 131;" xml:space="preserve">
<style type="text/css">
	.st0{fill:#3AD29F;}
	.st1{fill:#FFFFFF;}
	.st2{fill:#32D1A0;}
</style>
<g>
	<g>
		<path class="st0" d="M112.7,79.2l-16.2-5.6c1.2-3.5,1.8-7.1,1.8-10.8l0-0.2l17.1-0.1l0,0.3C115.5,68.4,114.5,73.9,112.7,79.2z"/>
		<path class="st0" d="M97.9,57c-0.2-1-0.4-2.1-0.7-3.1l16.5-4.6c0.4,1.6,0.8,3.1,1.1,4.7L97.9,57z"/>
		<path class="st0" d="M65.3,113C37.6,113,15,90.5,15,62.8c0-27.7,22.5-50.2,50.2-50.2v17.1c-18.3,0-33.1,14.8-33.1,33.1
			C32.2,81,47,95.9,65.3,95.9c11.1,0,21.4-5.5,27.6-14.8c0.4-0.6,0.8-1.3,1.2-2l14.9,8.5c-0.6,1-1.2,2-1.8,3
			C97.8,104.6,82.1,113,65.3,113z"/>
	</g>
	<path class="st1" d="M170.8,20.4h-22.8V97h16.8V69.6h5.3c22.9,0,35.8-7.1,35.8-24.8C206,25.5,189.6,20.4,170.8,20.4z M171,55.9
		h-6.1V35.1h5.7c12.7,0,18.5,2.1,18.5,10.6C189.1,52.9,184.9,55.9,171,55.9z"/>
	<path class="st1" d="M230.5,52l-0.2-0.1v-7h-15.8V97h16.1V65.5c3.8-4.4,8.5-6.1,14.1-6.1c1.5,0,3.1,0.2,4.3,0.5V44.7
		c-1.2-0.3-2.3-0.4-3.4-0.4C239.2,44.3,234.1,46.9,230.5,52z"/>
	<path class="st1" d="M280.5,43.8c-14.4,0-27.3,10.8-27.3,27.4c0,16.3,12.4,27,29.5,27c6.9,0,14.7-1.6,19.8-4.8V80
		c-5.5,3.7-11.9,5.7-17.7,5.7c-7.4,0-13.3-3.3-15.1-10.5h35.4c0.2-1.4,0.3-3.7,0.3-5.5C305.4,52.2,293.3,43.8,280.5,43.8z M269.6,65
		c1.4-5.9,5.7-9,10.7-9c5.2,0,9.3,3.4,10.3,9H269.6z"/>
	<path class="st1" d="M342.4,65.2c-7.7-1.9-13.3-1.6-13.3-5.4c0-2.4,2.5-3.7,6.8-3.7c4.7,0,12.7,1.7,19.6,5.6V47.9
		c-5.9-2.9-13.7-4.1-19.9-4.1c-12.9,0-22.7,6.2-22.8,17.3c0,8.6,5.8,12.7,15.7,15.1c7.8,2,13.7,1.6,13.7,5.6c0,2.9-2.6,4-7.1,4
		c-5,0-13.2-1.8-20.3-5.9v14.1c6.1,3,14.1,4.2,20.3,4.2c13.3,0,23.3-6.2,23.4-17.7C358.3,71.5,352.3,67.7,342.4,65.2z"/>
	<path class="st1" d="M386.9,28.6l-16.1,2.8v13.6h-8.5v13.3h8.5v19.2c0,8.3,1.8,12.6,4.6,15.6c3.3,3.5,8.3,5.2,13.6,5.2
		c4.6,0,9.3-1.3,11.8-2.9V82.5c-2.1,1.1-5.1,2.1-7.7,2.1c-4.9,0-6-3.8-6-8.9V58.3h13.8V44.9h-13.8V28.6z"/>
	<path class="st1" d="M453,80.8V63.1c0-6.6-1.9-11.2-5.8-14.4c-4.1-3.4-10.4-5-17.4-5c-7.6,0-14,1.9-18.2,4v13.9
		c4.1-2.2,9.4-4.1,15.2-4.1c3.8,0,6.6,0.8,8,2.2c1.2,1.1,2,3,2,5.5v2c-2.9-0.6-5.9-1-9-1c-5.4,0-10.6,1-14.6,3.7
		c-3.7,2.5-6.4,6.9-6.4,12.6c0,5.4,2.3,9.5,6.1,12.2c3.4,2.3,7.6,3.4,12.1,3.4c5.9,0,11.1-1.9,14.5-4.3h0.2c2.9,3,7,4.1,11.2,4.1
		c3.1,0,5.9-0.6,7.7-1.6V84.3c-0.8,0.4-1.8,0.6-2.6,0.6C453.9,84.9,453,83.2,453,80.8z M436.9,84.2c-1.9,1.2-4.6,2.1-7.3,2.1
		c-3.7,0-6.7-1.8-6.7-5.2c0-4,4.1-5.3,8.3-5.3c1.7,0,4,0.2,5.7,0.7V84.2z"/>
	<path class="st2" d="M497.8,51.5c-9.2-3.1-16.3-3.6-16.3-10.4c0-5.1,4.1-7.2,9.8-7.2c5.9,0,15.4,2.3,23.5,7.4V24.7
		c-6.7-3.6-15.9-5.5-23.4-5.5c-16.1,0-26.9,8.9-26.9,23.2c0,13.3,9.5,18.5,20.1,22c9.8,3.2,17,3.8,17,10.9c0,5.7-4.6,8.2-10.7,8.2
		c-6,0-15.8-2.3-24-7.6v16.9c7,3.5,16.2,5.4,23.8,5.4c16.5,0,27.8-9,27.8-23.9C518.6,60.7,509.3,55.3,497.8,51.5z"/>
	<path class="st1" d="M539.2,105.1c-3.1-1-5.5-1.2-5.5-3.5c0-1.7,1.4-2.4,3.3-2.4c2,0,5.2,0.8,8,2.5V96c-2.3-1.2-5.4-1.9-7.9-1.9
		c-5.4,0-9.1,3-9.1,7.8c0,4.5,3.2,6.3,6.8,7.5c3.3,1.1,5.8,1.3,5.8,3.7c0,1.9-1.5,2.8-3.6,2.8c-2,0-5.3-0.8-8.1-2.6v5.7
		c2.4,1.2,5.5,1.8,8.1,1.8c5.6,0,9.4-3,9.4-8.1C546.3,108.2,543.1,106.3,539.2,105.1z"/>
	<polygon class="st1" points="558.7,109.3 567.6,109.3 567.6,104.6 558.7,104.6 558.7,99.5 569,99.5 569,94.5 553,94.5 553,120.5 
		569.4,120.5 569.4,115.5 558.7,115.5 	"/>
	<path class="st1" d="M581.1,107.5c0-4.7,3.4-8.2,8.5-8.2c2.7,0,5.3,1,7.2,2.3v-5.8c-2-1-4.6-1.6-7.2-1.6c-8.3,0-14.1,5.9-14.1,13.4
		c0,7.6,5.8,13.3,14.1,13.3c2.6,0,5.4-0.5,7.6-1.7v-5.8c-2.2,1.5-4.7,2.4-7.3,2.4C584.4,115.7,581.1,112.1,581.1,107.5z"/>
	<path class="st1" d="M621.2,107.8c0,5.6-1.5,7.9-5.7,7.9c-4.5,0-5.7-2.5-5.7-7.9V94.5h-5.7V108c0,3.7,0.5,6.5,1.9,8.6
		c1.8,2.7,5.2,4.2,9.4,4.2s7.5-1.5,9.3-4.2c1.5-2.1,2-4.9,2-8.8V94.5h-5.5V107.8z"/>
	<path class="st1" d="M653.9,102.3c0-6.2-5.3-7.8-11.2-7.8h-8.1v25.9h5.7v-10.2h2.5l6.6,10.2h6.6l-7.3-11
		C652,108.4,653.9,105.7,653.9,102.3z M643.1,105.9h-2.9v-6.5h2.2c4.2,0,5.7,1,5.7,3.2C648.2,105.1,646.3,105.9,643.1,105.9z"/>
	<rect x="661.4" y="94.5" class="st1" width="5.7" height="25.9"/>
	<path class="st1" d="M718.8,94.5l-3.1,4.7c-1.1,1.6-2.1,3.2-3.1,4.8h-0.1c-1-1.6-2.1-3.3-3.1-4.8l-3.2-4.7h-6.6l10,14.2v11.7h5.7
		v-11.8l9.9-14.2H718.8z"/>
	<rect x="673.5" y="94.5" class="st2" width="16.1" height="2.5"/>
	<path class="st2" d="M642.7,90.5c6.8,0,10.5,2,12.6,4.5V62c2.9-2.2,6.8-4.3,10.9-4.3c2.2,0,4.1,0.6,5.5,2.2
		c1.3,1.5,1.8,3.4,1.8,7.3v23.4h16.1v-26c0-7.5-1.4-12.1-4.6-15.5c-3.3-3.4-8.2-5.3-13.7-5.3c-6.6,0-12.1,2.8-16.1,6l-0.2-0.1v-4.8
		h-15.9v45.6H642.7z"/>
	<polygon class="st1" points="673.4,99.5 681.8,99.5 681.8,120.5 687.5,120.5 687.5,99.5 695.8,99.5 695.8,94.5 673.4,94.5 	"/>
	<path class="st2" d="M589.5,90.1c3.1,0,6.3,0.7,9,2l1.6,0.8v-2.4h4h5.7h4v4v0.8c1.1,0.7,2.2,1.3,3.4,1.7v-2.5v-4h4h5.5h3.9h0.1h0.2
		v-6.2c-0.8,0.4-1.8,0.6-2.6,0.6c-2.2,0-3.2-1.7-3.2-4.1V63.1c0-6.6-1.9-11.2-5.8-14.4c-4.1-3.4-10.4-5-17.4-5c-7.6,0-14,1.9-18.2,4
		v13.9c4.1-2.2,9.4-4.1,15.2-4.1c3.8,0,6.6,0.8,8,2.2c1.2,1.1,2,3,2,5.5v2c-2.9-0.6-5.9-1-9-1c-5.4,0-10.6,1-14.6,3.7
		c-3.7,2.5-6.4,6.9-6.4,12.6c0,3.6,1.1,6.6,2.9,9C584.2,90.7,586.7,90.1,589.5,90.1z M603.2,75.8c1.7,0,4,0.2,5.7,0.7v7.6
		c-1.9,1.2-4.6,2.1-7.3,2.1c-3.7,0-6.7-1.8-6.7-5.2C595,77.1,599.1,75.8,603.2,75.8z"/>
	<path class="st2" d="M533.3,90.6c1.2-0.3,2.4-0.4,3.8-0.4c3.4,0,7.1,0.9,9.8,2.3l2.1,1.1V96v1.8c0,0,0,0,0,0v-3.3v-4h4h16h2V79.3
		c-4.3,3.3-10.2,5.2-15.2,5.2c-8.7,0-14.7-5.6-14.7-13.6c0-7.8,5.9-13.7,14.5-13.7c5,0,10.1,1.9,14.7,4.9V47.3
		c-4.2-2.1-9.6-3.5-15.5-3.5c-16.3,0-29.9,10.9-29.9,27.3C525,78.9,528.1,85.7,533.3,90.6z"/>
</g>
</svg>
